# xmcd
#
# Track frame offsets: 
#        150
#        38409
#        72225
#        102264
#        131040
#        161574
#        176769
#        210685
#        235507
#        264631
#        299173
#
# Disc length: 4372 seconds
#
# Revision: 0
# Processed by: cddbd v1.5.2PL0 Copyright (c) Steve Scherf et al.
# Submitted via: ExactAudioCopy v1.0b3
#
DISCID=a111120b
DTITLE=Various Artist - Trance Power Vol. 3 - CD 1
DYEAR=1900
DGENRE=
TTITLE0=Drax Ltd. II - Amphetamine (Silent Breed Rmx)
TTITLE1=Humate - Love Stimulation (Paul Van Dyk Mix)
TTITLE2=Storm - Storm (Club Mix)
TTITLE3=Silent Breed - Sync In (DJ Tomcraft Mix)
TTITLE4=Nachtklang - It's A Fine Day (SM Trax Motion Mix)
TTITLE5=Greece 2001 - 2000 and One (Radio Edit)
TTITLE6=Mindscape - Genetic (Talla 2XLC Rmx)
TTITLE7=Spellbound - Universe Of Life (Scot Project Rmx)
TTITLE8=RMF - The Beat (Original Mix)
TTITLE9=Nostrum - Melancholic Child (Dream Mix)
TTITLE10=Orinoko - Vila Nova (Timo Maas Mix)
EXTD=
EXTT0=
EXTT1=
EXTT2=
EXTT3=
EXTT4=
EXTT5=
EXTT6=
EXTT7=
EXTT8=
EXTT9=
EXTT10=
PLAYORDER=
